<svg width="73" height="96" viewBox="0 0 73 96" fill="none" xmlns="http://www.w3.org/2000/svg">
<path fill-rule="evenodd" clip-rule="evenodd" d="M48.6572 30.7297H63.0986L63.0401 30.5565L63.0394 30.5572C62.8661 30.0857 62.5993 29.6537 62.2557 29.2867L46.0226 11.7325L45.9473 11.6572H45.9466C45.5248 11.2069 45.013 10.8502 44.445 10.6096C44.3405 10.5643 44.2352 10.5226 44.1307 10.4861V26.2061V26.2054C44.1438 27.402 44.6256 28.5454 45.4714 29.3905C46.3172 30.2363 47.4613 30.7173 48.6572 30.7297ZM10.3621 80.9046H8.84085V77.8658L56.3976 77.8651V80.9039L10.3621 80.9046ZM10.3621 69.255H8.84085V66.2162L56.3976 66.2154V69.2542L10.3621 69.255ZM10.3621 45.9576L8.84085 45.9568V42.9107H56.3976V45.9495L10.3621 45.9576ZM10.3621 34.3079H8.84085V31.2691L34.1407 31.2684V34.3072L10.3621 34.3079ZM10.3621 57.6053H8.84085V54.5665L56.3976 54.5658V57.6046L10.3621 57.6053ZM66.3534 86.0716V32.2512C66.36 31.3228 66.2028 30.4003 65.8884 29.526C65.5778 28.6707 65.0982 27.8871 64.4783 27.2212L48.2459 9.67729L48.1691 9.58811C47.46 8.82857 46.6003 8.22473 45.6449 7.81609C44.6844 7.40306 43.6508 7.18959 42.6054 7.1874H9.81795V5.45487H9.82453H9.8238C9.82307 4.27061 10.2938 3.13392 11.1316 2.29683C11.9694 1.45907 13.1062 0.989022 14.2904 0.990482H51.8425C52.4755 0.991213 53.1013 1.1206 53.6825 1.37061C54.2512 1.61185 54.7622 1.96858 55.1847 2.41891L55.26 2.4942L71.4969 20.0411C71.8397 20.4095 72.1051 20.843 72.2784 21.3153C72.4677 21.8606 72.5605 22.4345 72.5518 23.0113V81.5439C72.5613 82.7472 72.1022 83.9066 71.2725 84.778H71.2659C70.4698 85.6055 69.3696 86.0711 68.2205 86.0667L66.3534 86.0716ZM63.3146 33.7764V90.7876L63.3138 90.7884C63.3226 91.9924 62.8628 93.1525 62.0323 94.0246C61.2326 94.8522 60.1295 95.3171 58.9782 95.3112H4.98745C3.79003 95.2988 2.64517 94.8178 1.79797 93.9705C0.95145 93.124 0.470417 91.9791 0.457991 90.7818H0.449219L0.581535 14.697H0.588114H0.587383C0.587383 13.5127 1.05743 12.3774 1.89446 11.5404C2.7315 10.7034 3.86601 10.2334 5.05025 10.2334H41.0827V26.2019C41.0952 28.2064 41.8978 30.1253 43.3153 31.5428C44.7328 32.9595 46.6525 33.7613 48.657 33.7731L63.3146 33.7764Z" fill="black"/>
</svg>
