<svg width="164" height="169" viewBox="0 0 164 169" fill="none" xmlns="http://www.w3.org/2000/svg">
<g clip-path="url(#clip0_842_10034)">
<path d="M108.189 52.2079C107.65 52.8954 106.964 53.4342 106.191 53.7792L103.975 56.456L97.6991 64.5859L93.459 67.3374L91.4902 63.7013L100.784 53.9892L103.374 51.1625C103.582 50.2913 103.981 49.4863 104.538 48.815C105.91 47.1145 107.84 46.4959 108.848 47.4327C109.857 48.3697 109.562 50.5071 108.189 52.2079Z" fill="#FFAFAF"/>
<path d="M70.2559 60.286L74.3371 52.9994L91.7009 61.0034L101.192 52.6843C101.192 52.6843 104.957 56.164 105.092 56.2883C105.226 56.4126 95.5211 70.8335 94.8319 70.8165C94.1428 70.7995 70.2559 60.286 70.2559 60.286Z" fill="#DEDEDE"/>
<path d="M4 162.37C4 162.588 4.16277 162.762 4.36545 162.762H159.635C159.837 162.762 160 162.588 160 162.37C160 162.153 159.837 161.978 159.635 161.978H4.36545C4.16277 161.978 4 162.153 4 162.37Z" fill="#3F3D58"/>
<path d="M109.447 4.48608C121.808 4.48608 131.864 14.6094 131.864 27.053C131.864 30.5299 131.057 33.9881 129.525 37.0908H129.543L129.137 37.8475C125.694 44.2108 123.782 51.4576 123.609 58.8038C123.556 61.0433 121.879 62.7977 119.79 62.7977H102.321C100.07 62.7977 98.1799 61.0667 97.8263 58.6819C96.9659 52.8796 95.2451 47.2887 92.7122 42.064C89.0473 37.9263 87.0293 32.5969 87.0293 27.053C87.0293 14.6094 97.0859 4.48608 109.447 4.48608ZM128.594 37.5389L128.739 37.2584C130.382 34.1306 131.25 30.6016 131.25 27.053C131.25 14.973 121.469 5.14497 109.447 5.14497C97.4244 5.14497 87.6435 14.973 87.6435 27.053C87.6435 32.4422 89.612 37.6235 93.1867 41.6431L93.2368 41.7184C95.8113 47.0178 97.5597 52.6905 98.4327 58.5783C98.7386 60.6413 100.374 62.1388 102.321 62.1388H119.79C121.543 62.1388 122.95 60.6666 122.995 58.7871C123.171 51.3395 125.107 43.9927 128.594 37.5389Z" fill="#3F3D56"/>
<path d="M122.208 61.1506H99.1437C98.4104 61.1506 97.8353 61.8262 97.9017 62.6096L98.1177 65.1581C98.2984 67.2908 98.9256 69.3521 99.9527 71.1884C100.124 71.4954 100.449 71.6636 100.78 71.6207C107.614 70.737 114.301 70.7081 120.828 71.6079C121.185 71.6572 121.532 71.4614 121.693 71.116L121.841 70.7988C122.58 69.2125 123.036 67.4919 123.186 65.7257L123.45 62.6096C123.516 61.8262 122.941 61.1506 122.208 61.1506Z" fill="#3F3D56"/>
<path d="M101.463 69.8809H120.349V83.0678C120.349 85.4265 118.564 87.3414 116.365 87.3414H105.446C103.248 87.3414 101.463 85.4265 101.463 83.0678V69.8809Z" fill="#3F3D56"/>
<path d="M113.336 90.8005H109.243C108.793 90.8005 108.371 90.5672 108.109 90.1742L105.455 86.1882H117.124L114.471 90.1742C114.209 90.5672 113.786 90.8005 113.336 90.8005Z" fill="#3F3D56"/>
<path d="M116.432 16.1241C113.427 16.7916 110.423 17.4591 107.418 18.1266C106.066 18.4268 104.553 18.5826 103.326 19.303C102.135 20.0014 101.302 21.4669 101.727 22.934C102.134 24.3349 103.334 25.2138 104.622 25.5262C106.05 25.8728 107.58 25.8704 109.036 25.9909C110.554 26.1167 112.073 26.2424 113.591 26.3682C114.314 26.428 115.041 26.4694 115.762 26.549C115.992 26.5745 116.244 26.6048 116.433 26.7618C116.43 26.7594 116.497 26.8043 116.46 26.8112C116.453 26.8126 116.452 26.7604 116.453 26.7569C116.482 26.6591 116.47 26.7516 116.447 26.7519C116.438 26.752 116.221 26.9061 116.1 26.9304C115.772 26.9961 115.411 26.9483 115.079 26.9423C114.359 26.9291 113.637 26.9437 112.918 26.9858C111.469 27.0705 110.022 27.2638 108.597 27.5567C107.196 27.8447 105.801 28.2282 104.455 28.7391C103.15 29.2344 101.783 30.175 101.747 31.8346C101.714 33.3933 102.975 34.4887 104.258 34.8802C104.918 35.0816 105.614 35.1546 106.291 35.2627C107.047 35.3833 107.802 35.5039 108.558 35.6244C110.044 35.8616 111.53 36.0987 113.016 36.3358C113.771 36.4564 114.527 36.577 115.282 36.6976C115.635 36.7538 115.989 36.8023 116.34 36.8664C116.47 36.89 116.592 36.9337 116.719 36.9618C116.634 36.9429 116.74 36.9431 116.722 36.9645C116.778 37.0013 116.778 36.9957 116.723 36.9478L116.685 36.888C116.598 36.6269 116.601 36.5925 116.759 36.2838C116.79 36.2248 116.851 36.2856 116.773 36.2764C116.689 36.2665 116.823 36.2652 116.734 36.3046C116.689 36.3242 116.641 36.3377 116.595 36.3514C116.245 36.4552 115.878 36.5095 115.522 36.5845C114.782 36.7404 114.042 36.8964 113.301 37.0523C111.846 37.359 110.39 37.6655 108.934 37.9723C106.369 38.5127 103.646 39.2435 102.109 41.7259C101.775 42.266 101.532 42.8882 101.411 43.523C101.311 44.0454 101.552 44.5907 102.054 44.7388C102.51 44.8731 103.087 44.5739 103.188 44.0485C103.674 41.4985 106.275 40.5828 108.414 40.0964C109.832 39.774 111.259 39.4918 112.681 39.1922C114.114 38.8903 115.57 38.6445 116.992 38.2825C117.589 38.1304 118.237 37.7363 118.404 37.0529C118.587 36.3047 118.243 35.5824 117.611 35.2338C117.004 34.8995 116.284 34.8731 115.621 34.7674C114.891 34.6508 114.16 34.5343 113.43 34.4177C111.944 34.1806 110.458 33.9434 108.972 33.7063C108.242 33.5898 107.512 33.4732 106.781 33.3566C106.104 33.2486 105.408 33.1756 104.748 32.9742C104.301 32.8379 103.844 32.6041 103.647 32.1478C103.583 32.0006 103.567 31.8936 103.61 31.7281C103.67 31.501 103.836 31.2894 104.02 31.1329C104.446 30.772 105.021 30.611 105.527 30.437C106.191 30.2086 106.862 30.0049 107.538 29.8262C108.881 29.4714 110.247 29.2118 111.624 29.0679C112.341 28.9929 113.061 28.9452 113.782 28.9252C114.464 28.9062 115.147 28.9515 115.828 28.9289C116.554 28.9048 117.301 28.6966 117.799 28.0929C118.312 27.4717 118.437 26.6234 118.08 25.8787C117.374 24.405 115.503 24.5498 114.199 24.4418C112.706 24.3182 111.212 24.1945 109.719 24.0708C108.323 23.9552 106.887 23.9309 105.503 23.7003C104.991 23.615 104.4 23.4578 104.013 23.1301C103.659 22.8297 103.429 22.4358 103.457 22.0412C103.483 21.674 103.833 21.2685 104.198 21.0432C104.712 20.727 105.317 20.609 105.891 20.4808C108.841 19.821 111.793 19.1697 114.744 18.5141C115.47 18.3528 116.196 18.1915 116.922 18.0302C117.41 17.9219 117.691 17.3052 117.566 16.8144C117.427 16.2715 116.921 16.0155 116.432 16.1241Z" fill="#7580F7"/>
<path d="M77.7086 47.6433H71.6738V60.2107H77.7086V47.6433Z" fill="#FFAFAF"/>
<path d="M87.6716 82.6628L73.1171 81.5203C73.1171 81.5203 67.0823 96.3726 71.6971 105.893L74.892 125.697L73.6286 158.291H80.2393L90.5115 105.893L87.6716 82.6628Z" fill="#2F2E41"/>
<path d="M84.8331 99.2974L90.5129 104.601L87.673 156.544H81.2832L84.8331 99.2974Z" fill="#2F2E41"/>
<path d="M74.6112 50.1141C78.7781 50.1141 82.156 46.4903 82.156 42.0201C82.156 37.5499 78.7781 33.926 74.6112 33.926C70.4443 33.926 67.0664 37.5499 67.0664 42.0201C67.0664 46.4903 70.4443 50.1141 74.6112 50.1141Z" fill="#FFAFAF"/>
<path d="M73.7063 150.555L81.5 151.876L82.9648 157.874C82.9648 157.874 89.293 160.429 86.2438 163.205C83.1947 165.981 71.9302 164.546 71.0396 162.555C70.149 160.563 73.7063 150.555 73.7063 150.555Z" fill="#2F2E41"/>
<path d="M80.0969 150.555L87.8907 151.876L89.3555 157.874C89.3555 157.874 95.6836 160.429 92.6345 163.205C89.5853 165.981 78.3208 164.546 77.4302 162.555C76.5396 160.563 80.0969 150.555 80.0969 150.555Z" fill="#2F2E41"/>
<path d="M101.627 81.3746C100.789 81.3845 99.9616 81.1792 99.213 80.7756L95.8764 80.7216L86.0387 80.9265L81.3281 79.2759L82.6112 75.3025L95.536 76.5181L99.2226 76.7782C99.9734 76.3785 100.802 76.1775 101.64 76.1923C103.737 76.1976 105.433 77.3627 105.43 78.7936C105.426 80.2249 103.724 81.3803 101.627 81.3746Z" fill="#FFAFAF"/>
<path d="M78.2658 52.3867H70.7969L68.3262 60.3842L73.1185 81.5202L87.673 82.6627L86.7855 74.094C88.5039 71.0985 88.3667 67.2865 86.4384 64.442L78.2658 52.3867Z" fill="#DEDEDE"/>
<path d="M71.166 55.814L78.9758 54.3757L84.6556 73.713L96.7252 75.998V81.5201C96.7252 81.7105 80.2063 83.2338 79.7685 82.6626C79.3307 82.0913 71.166 55.814 71.166 55.814Z" fill="#DEDEDE"/>
<path d="M78.3773 37.3275C79.3041 38.9406 78.4496 41.0653 77.3078 42.5111C76.166 43.9569 74.6938 45.226 74.184 47.0403C73.7269 48.667 74.1427 50.4213 74.6802 52.0194C75.2177 53.6175 75.886 55.2109 75.9414 56.9088C75.9968 58.6067 75.2478 60.4817 73.757 61.0549C72.2272 61.6431 70.4186 60.7188 68.9451 61.4541C67.0258 62.4118 66.5909 65.7276 64.4985 66.0714C63.2108 66.2829 62.0174 65.0852 61.6576 63.7421C61.2977 62.399 61.5561 60.9654 61.8163 59.596C62.5291 55.8441 63.2418 52.0921 63.9546 48.3402C64.5477 45.2184 65.1408 42.0966 65.7338 38.9748C66.0879 37.1109 66.5081 35.1171 67.8138 33.8302C69.4094 32.2577 71.8144 32.2203 73.9793 32.3146C75.9683 32.4012 78.0376 32.5472 79.7691 33.6007C81.5007 34.6542 82.7726 36.8936 82.1734 38.9301C81.6137 37.4967 79.9417 36.6927 78.5719 37.1981" fill="#2F2E41"/>
</g>
<defs>
<clipPath id="clip0_842_10034">
<rect width="156" height="160.263" fill="white" transform="translate(4 4.48608)"/>
</clipPath>
</defs>
</svg>
