<svg width="121" height="100" viewBox="0 0 121 100" fill="none" xmlns="http://www.w3.org/2000/svg">
<path fill-rule="evenodd" clip-rule="evenodd" d="M7.44046 0.750977H112.76C114.679 0.753581 116.52 1.51754 117.877 2.87446C119.234 4.23137 119.998 6.07189 120 7.9912V18.6407H0.199219V7.9912C0.201823 6.07174 0.965786 4.23126 2.3227 2.87446C3.67962 1.51754 5.52013 0.753577 7.43944 0.750977H7.44046ZM112.76 99.7454L7.44046 99.7463C5.521 99.7428 3.68142 98.9797 2.32372 97.6219C0.966808 96.265 0.202841 94.4254 0.200241 92.5059V24.8368H120.001V92.5059C119.999 94.4253 119.235 96.2649 117.878 97.6219C116.52 98.9797 114.68 99.7428 112.761 99.7463L112.76 99.7454ZM15.4613 10.3497C15.4613 11.171 15.7877 11.9601 16.3685 12.5401C16.9501 13.1208 17.7375 13.4464 18.5597 13.4464H53.4632C55.1743 13.4464 56.5615 12.0591 56.5615 10.3481C56.5615 8.63706 55.1742 7.24977 53.4632 7.24977H18.5597C17.7375 7.24977 16.9493 7.57707 16.3685 8.15784C15.7868 8.7395 15.4613 9.5276 15.4613 10.3497ZM6.187 10.3497C6.187 11.171 6.51343 11.9593 7.0942 12.5401C7.675 13.1208 8.46328 13.4464 9.28367 13.4464H10.4887C12.1998 13.4464 13.5863 12.0591 13.5863 10.3481C13.5863 8.63706 12.1999 7.24977 10.4887 7.24977H9.28367C8.46241 7.25064 7.67413 7.57707 7.09334 8.1587C6.51341 8.73949 6.187 9.5276 6.187 10.3497ZM106.622 10.3506C106.624 12.0608 108.011 13.4465 109.722 13.4465H110.92C112.63 13.4465 114.017 12.0592 114.017 10.3481C114.017 8.63713 112.63 7.24983 110.92 7.24983H109.722C108.011 7.2507 106.623 8.63866 106.622 10.3506ZM60.1013 26.2307C50.537 26.2298 41.3641 30.0288 34.601 36.7917C27.8381 43.5546 24.0384 52.7273 24.0384 62.2921C24.0375 71.8555 27.8365 81.0284 34.5994 87.7902C41.3623 94.554 50.535 98.3528 60.0998 98.3528C69.6641 98.3537 78.837 94.5538 85.6001 87.7911C92.363 81.0282 96.1619 71.8555 96.1619 62.293C96.1523 52.732 92.3499 43.5653 85.5897 36.8037C78.8295 30.0435 69.6628 26.2402 60.1027 26.2307H60.1013ZM88.942 59.194C87.2509 56.6095 83.5448 54.1284 78.3594 52.3262C78.6884 54.6033 78.902 56.8953 78.9992 59.194H88.942ZM72.7988 59.194C72.6695 56.3048 72.3318 53.4294 71.7866 50.5889C68.9521 50.0524 66.082 49.7199 63.1997 49.5949V59.1938L72.7988 59.194ZM63.1999 43.4024C65.4865 43.4979 67.7681 43.708 70.0339 44.0318C69.599 42.7782 69.0937 41.5498 68.5216 40.3525C67.3774 37.6336 65.5431 35.26 63.1999 33.4674L63.1999 43.4024ZM57.0039 33.4674C54.6626 35.2575 52.8273 37.6285 51.6823 40.3447C51.1102 41.5419 50.6049 42.7703 50.1691 44.0231C52.4349 43.7002 54.7165 43.4901 57.0031 43.3946V33.4605L57.0039 33.4674ZM57.0039 49.601C54.1216 49.7269 51.2507 50.0594 48.4162 50.5959C47.871 53.4355 47.5333 56.3118 47.4039 59.201H57.0029V49.5949L57.0039 49.601ZM41.2123 59.2C41.3078 56.9011 41.5205 54.6093 41.8487 52.333C36.6659 54.1353 32.9589 56.6157 31.2669 59.2008L41.2123 59.2ZM31.2678 65.3959C32.9589 67.9813 36.6659 70.4589 41.8495 72.2622L41.8486 72.2631C41.5196 69.9868 41.3078 67.6948 41.2123 65.3968L31.2678 65.3959ZM47.4109 65.3959C47.5394 68.2842 47.878 71.1605 48.4223 74.0001C51.2577 74.5375 54.1278 74.8709 57.0101 74.9976V65.39L47.4109 65.3959ZM57.0099 81.1953C54.6772 81.0937 52.3914 80.8819 50.1759 80.565C50.61 81.816 51.1126 83.0435 51.6821 84.239C52.8263 86.9588 54.6606 89.3324 57.0029 91.1259V81.1891L57.0099 81.1953ZM63.2059 91.1303C65.5472 89.335 67.3799 86.9596 68.5215 84.2389C69.0936 83.0418 69.5989 81.8134 70.0338 80.5606C67.8192 80.8774 65.5316 81.0893 63.1998 81.1908V91.1258L63.2059 91.1303ZM63.2059 74.9967C66.0891 74.8699 68.9591 74.5374 71.7936 74C72.3388 71.1604 72.6765 68.285 72.8059 65.3967H63.1998V74.9975L63.2059 74.9967ZM79.0052 65.3959C78.9089 67.6939 78.6953 69.9866 78.3654 72.2631C83.5508 70.4591 87.257 67.9804 88.9481 65.3968L79.0052 65.3959ZM87.1016 49.5281C84.1327 43.2802 79.0964 38.2501 72.8457 35.2862C73.2807 36.0354 73.7035 36.8254 74.1037 37.6589C75.2861 40.1565 76.2367 42.7583 76.9433 45.4306C79.6285 46.1355 82.2434 47.0878 84.7532 48.2755C85.5779 48.6766 86.3593 49.0864 87.0954 49.5178L87.1016 49.5281ZM47.3576 35.2862C41.1114 38.251 36.0778 43.2793 33.1071 49.523C33.8467 49.0924 34.6263 48.6757 35.4502 48.2807C37.96 47.0913 40.574 46.1373 43.2601 45.4306C43.9667 42.7568 44.9165 40.1541 46.0973 37.6539C46.5009 36.8196 46.9211 36.0287 47.3578 35.2812L47.3576 35.2862ZM33.1071 75.0614C36.0778 81.3051 41.1114 86.3334 47.3576 89.2988C46.92 88.5496 46.4999 87.7578 46.0971 86.9243C44.9164 84.4241 43.9666 81.8214 43.2599 79.1475C40.5747 78.4426 37.9598 77.4911 35.45 76.3044C34.6253 75.9033 33.8441 75.4937 33.1071 75.0614ZM72.8533 89.2988C79.0988 86.3332 84.1278 81.3049 87.0961 75.0614C86.3573 75.4937 85.5786 75.9061 84.7538 76.3046C82.244 77.493 79.6291 78.4463 76.9439 79.1537C76.2373 81.8267 75.2867 84.4303 74.1043 86.9296C73.7041 87.7596 73.2813 88.5487 72.8464 89.2988L72.8533 89.2988Z" fill="black"/>
</svg>
