<svg xmlns="http://www.w3.org/2000/svg" xmlns:xlink="http://www.w3.org/1999/xlink" xmlns:xodm="http://www.corel.com/coreldraw/odm/2003" xml:space="preserve" version="1.1" style="shape-rendering:geometricPrecision;text-rendering:geometricPrecision;image-rendering:optimizeQuality;" viewBox="0 0 846.66 1058.325" x="0px" y="0px" fill-rule="evenodd" clip-rule="evenodd"><defs><style type="text/css">
   
    .fil0 {fill:black;fill-rule:nonzero}
   
  </style></defs><g><path class="fil0" d="M554.28 635.03l-9.03 1.55c-11.35,30.87 -24.86,58.24 -40.06,81.17 -6.82,10.27 -14,19.71 -21.49,28.21 28.96,-8.46 56.44,-20.46 81.85,-35.44l-11.27 -75.49zm177.86 -101.58l-175.36 -139.41 50.64 339.58 37.5 -54.38c1.58,-2.25 3.65,-4.21 6.18,-5.66 9.07,-5.2 20.67,-2.08 25.88,7l72.38 125.39 67.82 -39.15 -71.89 -124.49c-1.7,-2.6 -2.79,-5.65 -3.05,-8.95 -0.8,-10.47 7.02,-19.65 17.49,-20.45l65.76 -5.28 -93.35 -74.2zm0.89 -47.84c2.36,-9.61 4.34,-19.3 5.89,-29.08 2.93,-18.38 4.46,-37.54 4.46,-57.33l-0.08 -7.25c-11.61,6.48 -24.13,12.64 -37.45,18.45 -14.23,6.21 -29.45,12.02 -45.55,17.38l72.73 57.83zm-108.64 -86.36c23.84,-6.91 46.07,-14.84 66.28,-23.66 18.2,-7.94 34.74,-16.63 49.34,-25.91 -5.8,-42.23 -18.89,-82.14 -37.96,-118.4 -37.29,15.89 -80.77,29.03 -128.67,38.65 5.2,30.69 8.59,63.09 9.93,96.66l41.08 32.66zm-81.05 -64.44c-1.69,-20.03 -4.14,-39.5 -7.3,-58.25 -42.44,6.61 -87.72,10.58 -134.72,11.43l0 142.67c21.13,-0.38 41.79,-1.43 61.86,-3.05 20.34,-1.64 40.08,-3.89 59.15,-6.66l-10.3 -69.04c-1.52,-10.39 5.68,-20.06 16.06,-21.57 5.67,-0.83 11.14,0.94 15.25,4.47zm-15.4 123.75c-20.11,2.94 -40.75,5.29 -61.8,6.99 -21.21,1.71 -42.87,2.79 -64.82,3.19l0 142.68c26.17,-0.47 51.43,-1.9 75.56,-4.2 13.57,-1.28 26.9,-2.84 39.93,-4.66 8.28,-26.13 15.02,-54.68 19.93,-85.02l-8.8 -58.98zm-164.72 -170.57c-46.97,-0.85 -92.24,-4.81 -134.67,-11.42 -6.44,38.31 -9.94,79.57 -9.94,122.63 0,6.05 0.07,12.07 0.21,18.04 44.77,7.79 93.39,12.49 144.4,13.42l0 -142.67zm0 180.76c-49.91,-0.9 -97.85,-5.32 -142.53,-12.69 3.94,53.61 13.37,103.29 27.05,146.47 36.51,5.09 75.24,8.14 115.48,8.88l0 -142.66zm38.1 -428.06l0 209.2c44.61,-0.82 87.38,-4.51 127.31,-10.62 -9.44,-41.01 -22.4,-77.71 -38.08,-108.38 -24.75,-48.44 -55.75,-81.11 -89.23,-90.2zm0 608.81l0 108.2c26.13,-7.15 50.82,-28.71 72.19,-60.93 10.44,-15.74 20.01,-33.9 28.56,-54.07 -7.14,0.84 -14.35,1.62 -21.61,2.3 -25.96,2.48 -52.42,4 -79.14,4.5zm-38.1 108.23l0 -108.23c-34.65,-0.63 -68.38,-2.94 -100.72,-6.77 2.47,5.87 5.04,11.58 7.7,17.1 25.32,52.69 57.78,88.33 93.02,97.9zm0 -507.84l0 -209.2c-35.24,9.57 -67.7,45.2 -93.02,97.89 -13.97,29.06 -25.59,63.06 -34.25,100.7 39.92,6.11 82.67,9.8 127.27,10.61zm-143.92 386.71c-10.63,-1.76 -21.07,-3.71 -31.31,-5.81 -38.28,-7.82 -73.67,-17.92 -105.29,-29.87 13.01,19.29 27.83,37.25 44.22,53.64 42.28,42.27 95,74.13 153.97,91.33 -16.71,-18.91 -31.82,-42.42 -44.92,-69.69 -5.97,-12.42 -11.54,-25.64 -16.67,-39.6zm-28.18 -366.68c-47.87,-9.62 -91.34,-22.75 -128.62,-38.64 -19.07,36.26 -32.16,76.18 -37.96,118.4 37.21,23.67 87.27,43.5 146.04,57.62l10.01 2.32 -0.07 -10.42c0,-45.24 3.73,-88.74 10.6,-129.28zm-9.09 178.85c-6.84,-1.45 -13.57,-2.98 -20.22,-4.57 -54.52,-13.1 -102.33,-30.96 -140.56,-52.25l-0.08 7.25c0,52.36 11.14,102.12 31.19,147.03 39.04,19.79 87.81,36.03 143.2,47.37l10.54 2.08c-12.45,-44.31 -20.83,-94.01 -24.07,-146.91zm16.48 -216.1c9.38,-41.16 22.1,-78.49 37.46,-110.46 13.1,-27.26 28.21,-50.77 44.91,-69.68 -58.97,17.21 -111.69,49.05 -153.96,91.33 -16.62,16.63 -31.65,34.87 -44.79,54.48 33.85,13.99 73.14,25.65 116.38,34.33zm285.16 -180.13c14.93,16.9 28.57,37.46 40.66,61.11 17.26,33.77 31.46,74.1 41.68,119.02 43.25,-8.69 82.54,-20.33 116.41,-34.33 -13.14,-19.61 -28.16,-37.85 -44.79,-54.48 -42.28,-42.28 -95,-74.11 -153.96,-91.32z"/></g><text x="0" y="861.66" fill="#000000" font-size="5px" font-weight="bold" font-family="'Helvetica Neue', Helvetica, Arial-Unicode, Arial, Sans-serif">Created by Zero Team0</text><text x="0" y="866.66" fill="#000000" font-size="5px" font-weight="bold" font-family="'Helvetica Neue', Helvetica, Arial-Unicode, Arial, Sans-serif">from the Noun Project</text></svg>